<?xml version="1.0" encoding="UTF-8"?><svg xmlns="http://www.w3.org/2000/svg" viewBox="0 0 800 200" width="800" height="200"><defs><linearGradient id="bg" x1="0" y1="0" x2="1" y2="1" gradientUnits="objectBoundingBox"><stop offset="0" stop-color="#f7f9ff"/><stop offset="1" stop-color="#eef2fd"/></linearGradient><linearGradient id="ab" x1="0" y1="0" x2="0" y2="1" gradientUnits="objectBoundingBox"><stop offset="0" stop-color="#f59e0b" stop-opacity="0"/><stop offset=".5" stop-color="#f59e0b"/><stop offset="1" stop-color="#f59e0b" stop-opacity="0"/></linearGradient></defs><rect width="800" height="200" fill="url(#bg)"/><rect x="0" y="0" width="4" height="200" fill="url(#ab)"/><text x="28" y="52" font-family="system-ui,-apple-system,sans-serif" font-size="10" font-weight="bold" fill="#f59e0b" letter-spacing="1.5">TRADING TOOL</text><text x="28" y="90" font-family="system-ui,-apple-system,sans-serif" font-size="26" font-weight="bold" fill="#0f1b35">Pip Calculator</text><text x="28" y="118" font-family="system-ui,-apple-system,sans-serif" font-size="13" fill="#596576">Calculate pip value for any pair</text><text x="28" y="136" font-family="system-ui,-apple-system,sans-serif" font-size="13" fill="#596576">and lot size instantly.</text><rect x="28" y="153" width="126" height="30" rx="5" fill="#0f1b35"/><text x="91" y="173" font-family="system-ui,-apple-system,sans-serif" font-size="11.5" font-weight="bold" fill="#fff" text-anchor="middle">Calculate Now</text><!-- Ruler base line -->
<line x1="428" y1="104" x2="772" y2="104" stroke="#0f1b35" stroke-opacity=".15" stroke-width="2"/>
<!-- Ruler ticks -->
<line x1="428" y1="62" x2="428" y2="104" stroke="#0f1b35" stroke-opacity=".12" stroke-width="1"/>
<text x="428" y="120" font-family="monospace" font-size="10" fill="#0f1b35" fill-opacity=".22" text-anchor="middle">0</text>
<line x1="514" y1="82" x2="514" y2="104" stroke="#0f1b35" stroke-opacity=".09" stroke-width="1"/>
<line x1="600" y1="62" x2="600" y2="104" stroke="#0f1b35" stroke-opacity=".12" stroke-width="1"/>
<text x="600" y="120" font-family="monospace" font-size="10" fill="#0f1b35" fill-opacity=".22" text-anchor="middle">50</text>
<line x1="686" y1="82" x2="686" y2="104" stroke="#0f1b35" stroke-opacity=".09" stroke-width="1"/>
<line x1="772" y1="62" x2="772" y2="104" stroke="#0f1b35" stroke-opacity=".12" stroke-width="1"/>
<text x="772" y="120" font-family="monospace" font-size="10" fill="#0f1b35" fill-opacity=".22" text-anchor="middle">100</text>
<text x="796" y="100" font-family="monospace" font-size="10" fill="#0f1b35" fill-opacity=".25">pips</text>
<!-- Measurement arrow -->
<line x1="530" y1="30" x2="530" y2="98" stroke="#f59e0b" stroke-width="1.5" stroke-dasharray="3,2"/>
<text x="540" y="66" font-family="monospace" font-size="9" font-weight="bold" fill="#f59e0b">20 pips</text>
<!-- Small candles -->
<line x1="479.2" y1="119.0" x2="479.2" y2="141.3" stroke="#10b981" stroke-width="1.5"/><rect x="465.2" y="119.3" width="28" height="19.3" fill="#10b981"/><line x1="509.6" y1="86.7" x2="509.6" y2="124.7" stroke="#10b981" stroke-width="1.5"/><rect x="495.6" y="89.2" width="28" height="30.1" fill="#10b981"/><line x1="540.0" y1="81.8" x2="540.0" y2="117.4" stroke="#ef4444" stroke-width="1.5"/><rect x="526.0" y="89.2" width="28" height="23.7" fill="#ef4444"/><line x1="570.4" y1="86.5" x2="570.4" y2="116.9" stroke="#10b981" stroke-width="1.5"/><rect x="556.4" y="87.8" width="28" height="25.1" fill="#10b981"/><line x1="600.8" y1="83.7" x2="600.8" y2="116.8" stroke="#ef4444" stroke-width="1.5"/><rect x="586.8" y="87.8" width="28" height="28.9" fill="#ef4444"/><line x1="631.2" y1="86.0" x2="631.2" y2="124.2" stroke="#10b981" stroke-width="1.5"/><rect x="617.2" y="87.2" width="28" height="29.6" fill="#10b981"/><line x1="661.6" y1="75.5" x2="661.6" y2="91.9" stroke="#10b981" stroke-width="1.5"/><rect x="647.6" y="76.7" width="28" height="10.4" fill="#10b981"/><line x1="692.0" y1="45.5" x2="692.0" y2="82.4" stroke="#10b981" stroke-width="1.5"/><rect x="678.0" y="49.1" width="28" height="27.7" fill="#10b981"/><line x1="722.4" y1="18.7" x2="722.4" y2="50.2" stroke="#10b981" stroke-width="1.5"/><rect x="708.4" y="25.8" width="28" height="23.2" fill="#10b981"/><line x1="752.8" y1="24.9" x2="752.8" y2="46.3" stroke="#ef4444" stroke-width="1.5"/><rect x="738.8" y="25.8" width="28" height="15.6" fill="#ef4444"/><polyline points="661.6,103.0 692.0,93.6 722.4,84.0 752.8,74.4" fill="none" stroke="#f59e0b" stroke-width="2.5" stroke-linecap="round" stroke-linejoin="round"/></svg>