<?xml version="1.0" encoding="UTF-8"?><svg xmlns="http://www.w3.org/2000/svg" viewBox="0 0 800 200" width="800" height="200"><defs><linearGradient id="bg" x1="0" y1="0" x2="1" y2="1" gradientUnits="objectBoundingBox"><stop offset="0" stop-color="#f8faff"/><stop offset="1" stop-color="#eef2ff"/></linearGradient><linearGradient id="ab" x1="0" y1="0" x2="0" y2="1" gradientUnits="objectBoundingBox"><stop offset="0" stop-color="#0f1b35" stop-opacity="0"/><stop offset=".5" stop-color="#0f1b35"/><stop offset="1" stop-color="#0f1b35" stop-opacity="0"/></linearGradient></defs><rect width="800" height="200" fill="url(#bg)"/><rect x="0" y="0" width="4" height="200" fill="url(#ab)"/><text x="28" y="52" font-family="system-ui,-apple-system,sans-serif" font-size="10" font-weight="bold" fill="#0f1b35" letter-spacing="1.5">BROKER REVIEWS</text><text x="28" y="90" font-family="system-ui,-apple-system,sans-serif" font-size="26" font-weight="bold" fill="#0f1b35">Find Your Broker</text><text x="28" y="118" font-family="system-ui,-apple-system,sans-serif" font-size="13" fill="#596576">Compare top regulated brokers</text><text x="28" y="136" font-family="system-ui,-apple-system,sans-serif" font-size="13" fill="#596576">for Gulf &amp;amp; MENA traders.</text><rect x="28" y="153" width="126" height="30" rx="5" fill="#0f1b35"/><text x="91" y="173" font-family="system-ui,-apple-system,sans-serif" font-size="11.5" font-weight="bold" fill="#f59e0b" text-anchor="middle">View All Brokers</text><rect x="432" y="16" width="102" height="62" rx="6" fill="white"/><rect x="432" y="16" width="102" height="62" rx="6" fill="none" stroke="#f59e0b" stroke-width="2"/><rect x="432" y="16" width="102" height="14" rx="5" fill="#f59e0b"/><text x="483" y="26" font-family="system-ui,sans-serif" font-size="7.5" font-weight="bold" fill="#0f1b35" text-anchor="middle">TOP RATED</text><text x="483" y="49" font-family="system-ui,sans-serif" font-size="11" fill="#f59e0b" text-anchor="middle">&#x2605;&#x2605;&#x2605;&#x2605;&#x2605;</text><text x="483" y="63" font-family="system-ui,sans-serif" font-size="11" font-weight="bold" fill="#0f1b35" text-anchor="middle">Exness</text><text x="483" y="73" font-family="monospace,sans-serif" font-size="9" fill="#596576" text-anchor="middle">4.8/5</text><rect x="552" y="44" width="102" height="62" rx="6" fill="white"/><rect x="552" y="44" width="102" height="62" rx="6" fill="none" stroke="#0f1b35" stroke-width="1"/><text x="603" y="71" font-family="system-ui,sans-serif" font-size="11" fill="#f59e0b" text-anchor="middle">&#x2605;&#x2605;&#x2605;&#x2605;&#x2605;</text><text x="603" y="85" font-family="system-ui,sans-serif" font-size="11" font-weight="bold" fill="#0f1b35" text-anchor="middle">XM</text><text x="603" y="97" font-family="monospace,sans-serif" font-size="9" fill="#596576" text-anchor="middle">4.6/5</text><rect x="672" y="16" width="102" height="62" rx="6" fill="white"/><rect x="672" y="16" width="102" height="62" rx="6" fill="none" stroke="#0f1b35" stroke-width="1"/><text x="723" y="43" font-family="system-ui,sans-serif" font-size="11" fill="#f59e0b" text-anchor="middle">&#x2605;&#x2605;&#x2605;&#x2605;&#x2605;</text><text x="723" y="57" font-family="system-ui,sans-serif" font-size="11" font-weight="bold" fill="#0f1b35" text-anchor="middle">ICM</text><text x="723" y="69" font-family="monospace,sans-serif" font-size="9" fill="#596576" text-anchor="middle">4.7/5</text><rect x="468" y="112" width="102" height="62" rx="6" fill="white"/><rect x="468" y="112" width="102" height="62" rx="6" fill="none" stroke="#0f1b35" stroke-width="1"/><text x="519" y="139" font-family="system-ui,sans-serif" font-size="11" fill="#f59e0b" text-anchor="middle">&#x2605;&#x2605;&#x2605;&#x2605;&#x2605;</text><text x="519" y="153" font-family="system-ui,sans-serif" font-size="11" font-weight="bold" fill="#0f1b35" text-anchor="middle">Pepper</text><text x="519" y="165" font-family="monospace,sans-serif" font-size="9" fill="#596576" text-anchor="middle">4.5/5</text><rect x="640" y="112" width="102" height="62" rx="6" fill="white"/><rect x="640" y="112" width="102" height="62" rx="6" fill="none" stroke="#0f1b35" stroke-width="1"/><text x="691" y="139" font-family="system-ui,sans-serif" font-size="11" fill="#f59e0b" text-anchor="middle">&#x2605;&#x2605;&#x2605;&#x2605;&#x2605;</text><text x="691" y="153" font-family="system-ui,sans-serif" font-size="11" font-weight="bold" fill="#0f1b35" text-anchor="middle">AVA</text><text x="691" y="165" font-family="monospace,sans-serif" font-size="9" fill="#596576" text-anchor="middle">4.4/5</text></svg>